Coordinates
version=1
nRows=7
nColumns=40
inDegrees=yes

Units are S.I. units (second, meters, Newtons, ...)
If the header above contains a line with 'inDegrees', this indicates whether rotational values are in degrees (yes) or radians (no).

endheader
time	pelvis_tilt	pelvis_list	pelvis_rotation	pelvis_tx	pelvis_ty	pelvis_tz	hip_flexion_r	hip_adduction_r	hip_rotation_r	knee_angle_r	knee_angle_r_beta	ankle_angle_r	subtalar_angle_r	mtp_angle_r	hip_flexion_l	hip_adduction_l	hip_rotation_l	knee_angle_l	knee_angle_l_beta	ankle_angle_l	subtalar_angle_l	mtp_angle_l	lumbar_extension	lumbar_bending	lumbar_rotation	arm_flex_r	arm_add_r	arm_rot_r	elbow_flex_r	pro_sup_r	wrist_flex_r	wrist_dev_r	arm_flex_l	arm_add_l	arm_rot_l	elbow_flex_l	pro_sup_l	wrist_flex_l	wrist_dev_l
      0.31000000	     -3.54835581	    -11.68876411	     -2.78510807	     -0.16484162	      0.92202701	      0.24894544	     10.52683315	     15.64934916	     -4.15347689	     11.07546542	      0.19330334	     -4.17747961	    -17.99117505	      0.00000000	     24.93425023	    -29.28313779	    -10.25409223	     79.08749951	      1.38033726	     -6.15311415	    -11.31441404	      0.00000000	      3.51022028	     13.99209358	     -0.89347297	     33.68613274	    -13.89679848	     33.68613274	     77.90394023	     44.53905920	      0.00000000	      0.00000000	     33.68613274	    -13.89679848	     33.68613274	     77.90394023	     44.53905920	      0.00000000	      0.00000000
      0.31500000	     -2.67386659	    -10.90952593	     -2.44188858	     -0.15790471	      0.92483222	      0.24755124	      8.92467620	     14.53507016	     -5.01345227	     10.75471219	      0.18770514	     -3.53642016	    -15.94555411	      0.00000000	     24.52253872	    -27.95177706	    -10.45455828	     78.27658201	      1.36618408	     -5.47767557	    -11.36654395	      0.00000000	      2.49511272	     13.14502208	     -0.90220861	     33.73639549	    -13.90483208	     33.73639549	     77.86259586	     44.55701834	      0.00000000	      0.00000000	     33.73639549	    -13.90483208	     33.73639549	     77.86259586	     44.55701834	      0.00000000	      0.00000000
      0.32000000	     -2.58052077	    -10.55256410	     -2.51790309	     -0.15134926	      0.92590409	      0.24727510	      8.13207638	     14.10026069	     -5.12287492	     10.40268285	      0.18156107	     -3.22043848	    -15.18893957	      0.00000000	     25.10863326	    -27.39563274	    -10.62359377	     77.77914088	      1.35750210	     -4.69837948	    -11.04641024	      0.00000000	      2.40171059	     12.78176709	     -0.81651697	     33.74877960	    -13.90680811	     33.74877960	     77.85246945	     44.56135081	      0.00000000	      0.00000000	     33.74877960	    -13.90680811	     33.74877960	     77.85246945	     44.56135081	      0.00000000	      0.00000000
      0.32500000	     -1.64836769	     -9.54173254	     -2.33805107	     -0.14455332	      0.92873867	      0.24619625	      6.58159330	     12.72876044	     -6.04578221	     10.33346330	      0.18035296	     -2.41593997	    -12.90574820	      0.00000000	     24.39770174	    -25.87009124	    -11.16177495	     76.69158553	      1.33852068	     -4.12752165	    -11.24925409	      0.00000000	      1.23711008	     11.57213010	     -0.76288680	     33.79977717	    -13.91493129	     33.79977717	     77.81102462	     44.57880279	      0.00000000	      0.00000000	     33.79977717	    -13.91493129	     33.79977717	     77.81102462	     44.57880279	      0.00000000	      0.00000000
      0.33000000	     -1.62859685	     -9.22081342	     -2.40802378	     -0.13801966	      0.92948740	      0.24587291	      5.88740050	     12.33182647	     -6.12988211	      9.98690506	      0.17430438	     -2.12852667	    -12.28923502	      0.00000000	     25.04103597	    -25.37484998	    -11.36186251	     76.07739436	      1.32780102	     -3.38658378	    -10.89715744	      0.00000000	      1.29818390	     11.27207595	     -0.67884678	     33.80849578	    -13.91631763	     33.80849578	     77.80398192	     44.58172301	      0.00000000	      0.00000000	     33.80849578	    -13.91631763	     33.80849578	     77.80398192	     44.58172301	      0.00000000	      0.00000000
      0.33500000	     -0.64504337	     -7.88183505	     -2.36615642	     -0.13126603	      0.93237742	      0.24507463	      4.43702524	     10.55827601	     -7.29386345	     10.22611592	      0.17847939	     -1.18832695	     -9.65056419	      0.00000000	     24.03882153	    -23.52046871	    -12.22715266	     74.67129507	      1.30325996	     -2.98427933	    -11.16265971	      0.00000000	      0.03333773	      9.56154912	     -0.55831533	     33.87802058	    -13.92734924	     33.87802058	     77.74824533	     44.60438413	      0.00000000	      0.00000000	     33.87802058	    -13.92734924	     33.87802058	     77.74824533	     44.60438413	      0.00000000	      0.00000000
      0.34000000	     -0.15645199	     -7.18345997	     -2.33637082	     -0.12458005	      0.93398177	      0.24441300	      3.33967627	      9.61820536	     -7.93249497	     10.07842498	      0.17590170	     -0.66045780	     -8.10641484	      0.00000000	     23.89251116	    -22.48437530	    -12.67254334	     73.58297563	      1.28426520	     -2.42480498	    -11.00767680	      0.00000000	     -0.52030237	      8.74352593	     -0.52674766	     33.93532358	    -13.93640841	     33.93532358	     77.70289529	     44.62221966	      0.00000000	      0.00000000	     33.93532358	    -13.93640841	     33.93532358	     77.70289529	     44.62221966	      0.00000000	      0.00000000
